<svg width="10" height="10" viewBox="0 0 10 10" fill="none" xmlns="http://www.w3.org/2000/svg">
<path d="M9.62763 2.0514L7.91513 0.3389C7.69162 0.12896 7.39874 0.00849971 7.09221 0.000432973C6.78567 -0.00763377 6.48686 0.0972563 6.25263 0.29515L0.627627 5.92015C0.425605 6.12388 0.299817 6.3909 0.271377 6.6764L0.00262684 9.28265C-0.00579255 9.37419 0.0060858 9.46647 0.0374151 9.55289C0.0687444 9.63932 0.118753 9.71777 0.183877 9.78265C0.242277 9.84057 0.311537 9.8864 0.387685 9.91751C0.463834 9.94861 0.545373 9.96438 0.627627 9.9639H0.683877L3.29013 9.7264C3.57562 9.69796 3.84265 9.57217 4.04638 9.37015L9.67138 3.74515C9.8897 3.5145 10.0077 3.20672 9.99949 2.88923C9.99129 2.57175 9.85757 2.27047 9.62763 2.0514V2.0514ZM7.50263 4.1389L5.82763 2.4639L7.04638 1.2139L8.75263 2.92015L7.50263 4.1389Z" fill="#202C66"/>
</svg>
