<svg width="30" height="18" viewBox="0 0 30 18" fill="none" xmlns="http://www.w3.org/2000/svg">
<path d="M16.7652 5.48865C17.1631 6.44914 17.3678 7.4786 17.3678 8.51823H13.8053C13.8053 7.94643 13.6927 7.38023 13.4739 6.85196C13.2551 6.32369 12.9344 5.84369 12.53 5.43937C12.1257 5.03504 11.6457 4.71432 11.1174 4.4955C10.5892 4.27668 10.023 4.16406 9.45117 4.16406V0.601562C10.4908 0.601562 11.5203 0.806333 12.4807 1.20418C13.4412 1.60203 14.314 2.18517 15.0491 2.9203C15.7842 3.65543 16.3674 4.52816 16.7652 5.48865Z" fill="#202C66"/>
<path d="M29.0413 5.48865C29.4391 6.44914 29.6439 7.4786 29.6439 8.51823H26.0814C26.0814 7.94643 25.9688 7.38023 25.75 6.85196C25.5311 6.32369 25.2104 5.84369 24.8061 5.43937C24.4018 5.03504 23.9218 4.71432 23.3935 4.4955C22.8652 4.27668 22.299 4.16406 21.7272 4.16406V0.601562C22.7669 0.601562 23.7963 0.806333 24.7568 1.20418C25.7173 1.60203 26.59 2.18517 27.3252 2.9203C28.0603 3.65543 28.6434 4.52816 29.0413 5.48865Z" fill="#202C66"/>
<path d="M17.3731 10.0527C17.3731 11.2075 17.8318 12.315 18.6484 13.1316C19.4649 13.9482 20.5724 14.4069 21.7272 14.4069C22.882 14.4069 23.9895 13.9482 24.8061 13.1316C25.6227 12.315 26.0814 11.2075 26.0814 10.0527H29.6439C29.6439 12.1524 28.8098 14.166 27.3252 15.6507C25.8405 17.1353 23.8269 17.9694 21.7272 17.9694C19.6276 17.9694 17.614 17.1353 16.1293 15.6507C15.9384 15.4597 15.7582 15.2601 15.5892 15.0526C15.4197 15.2606 15.2395 15.4602 15.0491 15.6507C14.314 16.3858 13.4412 16.9689 12.4807 17.3668C11.5203 17.7646 10.4908 17.9694 9.45117 17.9694V14.4069C10.023 14.4069 10.5892 14.2943 11.1174 14.0755C11.6457 13.8566 12.1257 13.5359 12.53 13.1316C12.9344 12.7273 13.2551 12.2473 13.4739 11.719C13.6927 11.1907 13.8053 10.6245 13.8053 10.0527L17.3731 10.0527Z" fill="#202C66"/>
<path d="M3.55727 10.0527V0.601563H0V10.0527C-5.32152e-07 11.0924 0.20477 12.1218 0.60262 13.0823C1.00047 14.0428 1.58361 14.9155 2.31874 15.6507C3.05387 16.3858 3.92659 16.9689 4.88709 17.3668C5.84758 17.7646 6.87703 17.9694 7.91666 17.9694V14.4069C7.34487 14.4069 6.77867 14.2943 6.2504 14.0755C5.72213 13.8566 5.24213 13.5359 4.8378 13.1316C4.43348 12.7273 4.11276 12.2473 3.89394 11.719C3.67512 11.1907 3.5625 10.6245 3.5625 10.0527H3.55727Z" fill="#202C66"/>
</svg>
